<svg width="68" height="76" viewBox="0 0 68 76" fill="none" xmlns="http://www.w3.org/2000/svg">
    <g clip-path="url(#clip0_462_765)">
        <path d="M46.5336 18.6848L15.9789 1.42889C14.4649 0.570868 13.1179 0.66232 12.2834 1.49934L37.8976 27.2888L42.7558 24.9817C45.2802 23.559 49.0551 20.1137 46.5336 18.6848Z"
              fill="url(#paint0_linear_462_765)"/>
        <path d="M37.8354 27.2249L44.1088 31.1633C46.6299 32.5921 48.8547 33.9868 46.3453 35.7991L16.0239 53.0738C14.3954 53.9915 13 53.8447 12.1831 52.8262L20.2824 43.1071L37.8354 27.2249Z"
              fill="url(#paint1_linear_462_765)"/>
        <path d="M14.4349 66.3141C16.302 66.3141 17.7957 67.6435 17.7957 69.6313C17.7957 71.6191 16.302 72.9485 14.4349 72.9485C12.5677 72.9485 11.074 71.6191 11.074 69.6313C11.074 67.6435 12.5677 66.3141 14.4349 66.3141ZM14.4592 71.6498C15.6579 71.6498 16.3799 70.6767 16.3799 69.6188C16.3799 68.5614 15.6579 67.5881 14.4592 67.5881C13.2605 67.5881 12.5383 68.5612 12.5383 69.6188C12.5383 70.6765 13.2605 71.6498 14.4592 71.6498ZM21.7983 66.3141C23.6655 66.3141 25.1592 67.6435 25.1592 69.6313C25.1592 71.6191 23.6655 72.9485 21.7983 72.9485C19.9311 72.9485 18.4374 71.6191 18.4374 69.6313C18.4374 67.6435 19.9311 66.3141 21.7983 66.3141ZM21.8226 71.6498C23.0214 71.6498 23.7433 70.6767 23.7433 69.6188C23.7433 68.5614 23.0214 67.5881 21.8226 67.5881C20.6239 67.5881 19.9018 68.5612 19.9018 69.6188C19.9018 70.6765 20.6239 71.6498 21.8226 71.6498ZM37.22 70.6445C37.527 71.2377 38.1075 71.6609 38.8925 71.6609C39.6418 71.6609 40.205 71.2754 40.5216 70.7243L41.6738 71.5191C41.0918 72.415 40.082 72.9481 38.8994 72.9481C37.0322 72.9481 35.5385 71.6187 35.5385 69.6309C35.5385 67.6431 37.1358 66.1778 38.92 66.2548C38.92 66.2548 40.9788 66.276 41.7391 68.7489L37.22 70.6445ZM40.0481 68.2779C39.8524 67.8416 39.4238 67.5411 38.8133 67.5411C37.6378 67.5411 36.9999 68.4907 36.9726 69.5387L40.0481 68.2779ZM31.0043 71.9613C30.4484 72.923 29.2218 72.9483 29.2218 72.9483C27.3546 72.9483 25.8609 71.6189 25.8609 69.6311C25.8609 67.6433 27.3546 66.3139 29.2218 66.3139C29.2218 66.3139 30.3281 66.2957 30.914 67.1074L31.44 67.5433L31.0043 71.9613ZM29.1831 71.6711C30.3426 71.6711 31.0107 70.6878 31.0107 69.6192C31.0107 68.5513 30.3426 67.568 29.1831 67.568C28.0238 67.568 27.3252 68.5513 27.3252 69.6192C27.3252 70.6878 28.0238 71.6711 29.1831 71.6711Z"
              fill="#6E6F70"/>
        <path d="M30.9117 67.2928L31.1286 68.377V69.7092L30.9427 71.1033V72.6703C30.9427 73.7279 30.3842 74.7012 29.2057 74.7012C28.3499 74.7012 27.7029 74.1873 27.4116 73.5015L26.1428 74.0544C26.6454 75.2579 27.8109 76 29.1819 76C31.0175 76 32.306 74.6705 32.306 72.6828V66.4565H30.9119V67.2928H30.9117ZM33.3592 62.8627H34.7997V72.7762H33.3592V62.8627ZM52.5975 62.8627H54.0381V72.7762H52.5975V62.8627ZM10.4718 67.2841H5.71592V68.67H9.06918C9.00338 70.2866 7.79795 71.6017 5.62818 71.6017C3.49782 71.6017 1.88029 69.8747 1.88029 67.7441C1.88029 65.6136 3.49763 63.8866 5.62818 63.8866C6.61401 63.8851 7.56269 64.2626 8.27808 64.9409L9.23164 63.944C8.25388 63.0315 6.96557 62.5253 5.62818 62.528C2.72307 62.528 0.368164 64.8635 0.368164 67.7443C0.368164 70.6251 2.72307 72.9605 5.62818 72.9605C5.62818 72.9605 10.9321 73.2235 10.4718 67.2841ZM67.5456 66.4612H65.9188L64.1994 70.8394L62.4309 66.4612H60.8455L63.4951 72.474L61.9525 75.7821H63.4871L67.5456 66.4612ZM48.6498 62.8592H45.8094L45.8098 62.8629H44.9965V72.7764H46.4371V68.9352H48.6498C50.3725 68.9352 51.7691 67.5752 51.7691 65.8972C51.7691 64.2193 50.3725 62.8592 48.6498 62.8592ZM48.5511 67.6224H46.4371V64.1836H48.5511C49.5456 64.1836 50.3519 64.9535 50.3519 65.903C50.3519 66.8525 49.5454 67.6224 48.5511 67.6224ZM57.7332 66.2272C56.416 66.2272 55.5095 66.8476 55.0273 67.7434L56.3434 68.2676C56.6019 67.8313 57.1135 67.5356 57.7531 67.5356C58.6985 67.5356 59.3461 68.1649 59.3461 68.9412C59.3461 68.9412 58.6932 68.5713 57.6473 68.5713C54.8359 68.5713 54.9212 70.7669 54.9212 70.7669C54.9212 73.0789 57.3899 72.9636 57.3899 72.9636C58.6332 72.9636 59.307 71.9271 59.307 71.9271V72.7764H60.732V68.8826C60.7323 67.416 59.518 66.2272 57.7332 66.2272ZM59.3146 70.1397C58.9544 71.9346 57.1781 71.6504 57.1781 71.6504C56.9998 71.6279 56.8321 71.5529 56.6965 71.435C56.5608 71.3171 56.4632 71.1616 56.416 70.9881C56.285 70.505 56.5497 70.0615 57.0536 69.8765C57.0536 69.8765 58.151 69.4856 59.3204 70.1052L59.3146 70.1397Z"
              fill="#6E6F70"/>
        <path d="M56.9657 24.5662L46.4323 18.6395L37.8389 27.2301L46.3449 35.8026L56.9595 29.751C57.275 29.5731 57.5514 29.3811 57.788 29.1783C58.0246 28.9755 58.2222 28.7621 58.3802 28.5415C58.4198 28.4864 58.4568 28.4307 58.4914 28.3749C59.2862 27.0873 58.778 25.5932 56.9657 24.5662Z"
              fill="url(#paint2_linear_462_765)"/>
        <path d="M12.2998 1.48572C11.7442 2.04206 11.4145 2.92684 11.4158 4.08487L11.4661 50.3765C11.4673 51.4053 11.7295 52.2656 12.1792 52.8262L37.8367 27.2226L12.2998 1.48572Z"
              fill="url(#paint3_linear_462_765)"/>
        <path d="M58.1918 25.546C59.033 26.8479 58.5997 28.5492 56.6422 29.619L15.7468 52.9342C14.1732 53.821 12.814 53.4781 11.9846 52.549C12.7609 53.7747 14.2074 54.0924 16.0385 53.0662L56.9338 29.7509C58.9854 28.6531 59.3657 26.9148 58.1918 25.546Z"
              fill="#CCCCCC"/>
    </g>
    <defs>
        <linearGradient id="paint0_linear_462_765" x1="12.2834" y1="14.0581" x2="47.3662" y2="14.0581"
                        gradientUnits="userSpaceOnUse">
            <stop offset="0.077" stop-color="#54B06A"/>
            <stop offset="0.374" stop-color="#65B362"/>
        </linearGradient>
        <linearGradient id="paint1_linear_462_765" x1="12.1833" y1="40.4543" x2="47.4465" y2="40.4543"
                        gradientUnits="userSpaceOnUse">
            <stop offset="0.121" stop-color="#DF2253"/>
            <stop offset="0.451" stop-color="#E63D49"/>
        </linearGradient>
        <linearGradient id="paint2_linear_462_765" x1="37.8389" y1="27.2211" x2="58.8548" y2="27.2211"
                        gradientUnits="userSpaceOnUse">
            <stop offset="0.077" stop-color="#FCC40D"/>
            <stop offset="0.286" stop-color="#FDCE0F"/>
            <stop offset="0.683" stop-color="#FEE40E"/>
            <stop offset="0.769" stop-color="#FEE90F"/>
        </linearGradient>
        <linearGradient id="paint3_linear_462_765" x1="24.6262" y1="1.48572" x2="24.6262" y2="52.8264"
                        gradientUnits="userSpaceOnUse">
            <stop offset="0.198" stop-color="#48BCE8"/>
            <stop offset="0.593" stop-color="#61C4E2"/>
        </linearGradient>
        <clipPath id="clip0_462_765">
            <rect width="67.9136" height="76" fill="white"/>
        </clipPath>
    </defs>
</svg>
